<svg width="16" height="17" viewBox="0 0 16 17" fill="none" xmlns="http://www.w3.org/2000/svg">
<path d="M15.8184 12.4187C15.3559 11.6373 14.6682 9.42642 14.6682 6.53874C14.6682 4.80456 13.9657 3.14141 12.7153 1.91515C11.4648 0.688901 9.76883 0 8.00042 0C6.232 0 4.53602 0.688901 3.28556 1.91515C2.0351 3.14141 1.3326 4.80456 1.3326 6.53874C1.3326 9.42723 0.644145 11.6373 0.181565 12.4187C0.0634372 12.6174 0.000812886 12.843 7.86049e-06 13.073C-0.000797165 13.303 0.0602457 13.5291 0.17698 13.7285C0.293715 13.9279 0.462014 14.0937 0.664903 14.209C0.867793 14.3243 1.0981 14.3851 1.3326 14.3852H4.73402C4.88786 15.1234 5.29697 15.7869 5.89216 16.2633C6.48736 16.7398 7.2321 17 8.00042 17C8.76874 17 9.51348 16.7398 10.1087 16.2633C10.7039 15.7869 11.113 15.1234 11.2668 14.3852H14.6682C14.9027 14.3849 15.1329 14.324 15.3356 14.2087C15.5384 14.0933 15.7066 13.9276 15.8232 13.7281C15.9399 13.5287 16.0008 13.3027 16 13.0728C15.9992 12.8429 15.9365 12.6173 15.8184 12.4187ZM8.00042 15.693C7.58686 15.6929 7.18351 15.567 6.84588 15.3328C6.50825 15.0987 6.25294 14.7676 6.11509 14.3852H9.88574C9.74789 14.7676 9.49258 15.0987 9.15495 15.3328C8.81732 15.567 8.41397 15.6929 8.00042 15.693ZM1.3326 13.0775C1.97438 11.9953 2.66616 9.48772 2.66616 6.53874C2.66616 5.1514 3.22816 3.82087 4.22853 2.83987C5.2289 1.85887 6.58568 1.30775 8.00042 1.30775C9.41515 1.30775 10.7719 1.85887 11.7723 2.83987C12.7727 3.82087 13.3347 5.1514 13.3347 6.53874C13.3347 9.48527 14.0248 11.9929 14.6682 13.0775H1.3326Z" fill="#48A7F8"/>
</svg>
