<svg width="24" height="24" viewBox="0 0 24 24" fill="none" xmlns="http://www.w3.org/2000/svg">
<g clip-path="url(#clip0_0_78)">
<path fill-rule="evenodd" clip-rule="evenodd" d="M1.16827e-05 12C1.16827e-05 5.37258 5.3726 0 12 0C18.6275 0 24 5.37259 24 12C24 18.6275 18.6275 24 12 24C10.1449 24 8.38593 23.5784 6.8158 22.8252L1.02526 23.9834C0.716807 24.045 0.399349 23.9328 0.19819 23.691C-0.00296868 23.4492 -0.0555063 23.1166 0.0613154 22.8245L1.83745 18.3841C0.673419 16.5348 1.16827e-05 14.3449 1.16827e-05 12ZM12 1.71429C6.31937 1.71429 1.7143 6.31936 1.7143 12C1.7143 14.1544 2.37572 16.1518 3.50651 17.8032C3.6681 18.0392 3.70133 18.3403 3.59511 18.6058L2.24064 21.992L6.76615 21.0869C6.95564 21.049 7.15239 21.0763 7.32446 21.1643C8.72628 21.881 10.3146 22.2857 12 22.2857C17.6807 22.2857 22.2857 17.6807 22.2857 12C22.2857 6.31935 17.6807 1.71429 12 1.71429Z" fill="#0591B5"/>
<path fill-rule="evenodd" clip-rule="evenodd" d="M12.7425 17.1426C12.8155 17.0166 12.8572 16.8702 12.8572 16.7141C12.8572 16.2407 12.4735 15.8569 12.0001 15.8569C11.29 15.8569 10.7144 16.4326 10.7144 17.1426C10.7144 17.8528 11.2901 18.4284 12.0001 18.4284C12.4735 18.4284 12.8572 18.0446 12.8572 17.5712C12.8572 17.4151 12.8155 17.2687 12.7425 17.1426Z" fill="#4C5563"/>
<path fill-rule="evenodd" clip-rule="evenodd" d="M11.1431 16.7141C11.1431 16.2407 11.5268 15.8569 12.0002 15.8569C12.7103 15.8569 13.2859 16.4326 13.2859 17.1426C13.2859 17.8528 12.7102 18.4284 12.0002 18.4284C11.5268 18.4284 11.1431 18.0446 11.1431 17.5712C11.1431 17.4151 11.1848 17.2687 11.2577 17.1426C11.1848 17.0166 11.1431 16.8702 11.1431 16.7141Z" fill="#4C5563"/>
<path fill-rule="evenodd" clip-rule="evenodd" d="M12.0002 7.28557C10.8167 7.28557 9.85735 8.24496 9.85735 9.42843C9.85735 9.90182 9.4736 10.2856 9.00021 10.2856C8.52682 10.2856 8.14307 9.90182 8.14307 9.42843C8.14307 7.29819 9.86997 5.57129 12.0002 5.57129C14.1305 5.57129 15.8574 7.29819 15.8574 9.42843C15.8574 11.2641 14.5751 12.8002 12.8574 13.19V14.1427C12.8574 14.6161 12.4736 14.9999 12.0002 14.9999C11.5268 14.9999 11.1431 14.6161 11.1431 14.1427V12.4284C11.1431 11.955 11.5268 11.5713 12.0002 11.5713C13.1837 11.5713 14.1431 10.6119 14.1431 9.42843C14.1431 8.24496 13.1837 7.28557 12.0002 7.28557Z" fill="#4C5563"/>
</g>
<defs>
<clipPath id="clip0_0_78">
<rect width="24" height="24" fill="white"/>
</clipPath>
</defs>
</svg>
