<svg width="24" height="24" viewBox="0 0 24 24" fill="none" xmlns="http://www.w3.org/2000/svg">
<g clip-path="url(#clip0_0_44)">
<path fill-rule="evenodd" clip-rule="evenodd" d="M0 12C0 5.37258 5.37258 0 12 0C18.6275 0 24 5.37259 24 12C24 18.6275 18.6275 24 12 24C5.37259 24 0 18.6275 0 12ZM12 1.71429C6.31936 1.71429 1.71429 6.31936 1.71429 12C1.71429 17.6807 6.31935 22.2857 12 22.2857C17.6807 22.2857 22.2857 17.6807 22.2857 12C22.2857 6.31935 17.6807 1.71429 12 1.71429Z" fill="#0591B5"/>
<path fill-rule="evenodd" clip-rule="evenodd" d="M8.57129 17.1428C8.57129 16.6694 8.95504 16.2856 9.42843 16.2856H14.5713C15.0447 16.2856 15.4284 16.6694 15.4284 17.1428C15.4284 17.6162 15.0447 17.9999 14.5713 17.9999H9.42843C8.95504 17.9999 8.57129 17.6162 8.57129 17.1428Z" fill="#0591B5"/>
<path fill-rule="evenodd" clip-rule="evenodd" d="M9.42871 11.1428C9.42871 10.6694 9.81247 10.2856 10.2859 10.2856H12.0001C12.4735 10.2856 12.8573 10.6694 12.8573 11.1428V17.1428C12.8573 17.6162 12.4735 17.9999 12.0001 17.9999C11.5268 17.9999 11.143 17.6162 11.143 17.1428V11.9999H10.2859C9.81247 11.9999 9.42871 11.6162 9.42871 11.1428Z" fill="#0591B5"/>
<path fill-rule="evenodd" clip-rule="evenodd" d="M12.7425 6.857C12.8155 6.73093 12.8572 6.58456 12.8572 6.42843C12.8572 5.95504 12.4735 5.57129 12.0001 5.57129C11.29 5.57129 10.7144 6.14692 10.7144 6.857C10.7144 7.56708 11.29 8.14272 12.0001 8.14272C12.4735 8.14272 12.8572 7.75896 12.8572 7.28557C12.8572 7.12945 12.8155 6.98308 12.7425 6.857Z" fill="#0591B5"/>
<path fill-rule="evenodd" clip-rule="evenodd" d="M11.1431 6.42843C11.1431 5.95504 11.5268 5.57129 12.0002 5.57129C12.7103 5.57129 13.2859 6.14692 13.2859 6.857C13.2859 7.56708 12.7103 8.14272 12.0002 8.14272C11.5268 8.14272 11.1431 7.75896 11.1431 7.28557C11.1431 7.12945 11.1848 6.98308 11.2577 6.857C11.1848 6.73093 11.1431 6.58456 11.1431 6.42843Z" fill="#0591B5"/>
</g>
<defs>
<clipPath id="clip0_0_44">
<rect width="24" height="24" fill="white"/>
</clipPath>
</defs>
</svg>
