<svg width="24" height="24" viewBox="0 0 24 24" fill="none" xmlns="http://www.w3.org/2000/svg">
<g clip-path="url(#clip0_0_37)">
<path fill-rule="evenodd" clip-rule="evenodd" d="M13.7146 0.120117C14.188 0.120117 14.5717 0.503873 14.5717 0.97726V4.71441C14.5717 5.73739 14.1653 6.71845 13.442 7.44181C12.7186 8.16516 11.7376 8.57155 10.7146 8.57155C10.1462 8.57155 9.60119 8.79731 9.19933 9.19917C8.79747 9.60104 8.57171 10.1461 8.57171 10.7144V13.2858C8.57171 14.3088 8.16535 15.2899 7.44197 16.0132C6.71863 16.7366 5.73755 17.143 4.71456 17.143H1.71456C1.24118 17.143 0.857422 16.7592 0.857422 16.2858C0.857422 15.8125 1.24118 15.4287 1.71456 15.4287H4.71456C5.28288 15.4287 5.82793 15.2029 6.2298 14.8011L6.83589 15.4071L6.22981 14.801C6.63166 14.3992 6.85742 13.8542 6.85742 13.2858V10.7144C6.85742 9.69143 7.26379 8.71035 7.98715 7.98699C8.71051 7.26363 9.69159 6.85727 10.7146 6.85727C11.2829 6.85727 11.8279 6.6315 12.2298 6.22963C12.6317 5.82776 12.8574 5.28273 12.8574 4.71441V0.97726C12.8574 0.503873 13.2412 0.120117 13.7146 0.120117Z" fill="#0591B5"/>
<path fill-rule="evenodd" clip-rule="evenodd" d="M13.9871 11.4154C14.7105 10.692 15.6916 10.2856 16.7146 10.2856H20.3707C21.4736 10.2917 22.559 10.5598 23.5379 11.0677C23.9581 11.2857 24.122 11.8031 23.904 12.2233C23.6859 12.6435 23.1686 12.8073 22.7484 12.5893C22.0112 12.2069 21.194 12.0049 20.3635 11.9999H16.7146C16.1462 11.9999 15.6012 12.2257 15.1993 12.6276C14.7975 13.0294 14.5717 13.5745 14.5717 14.1428C14.5717 14.7111 14.7975 15.2562 15.1993 15.658C15.6012 16.0599 16.1462 16.2856 16.7146 16.2856C17.5101 16.2856 18.2733 16.6017 18.8359 17.1643C19.3985 17.7269 19.7146 18.4901 19.7146 19.2856V20.7771C19.7146 21.2505 19.3308 21.6342 18.8574 21.6342C18.384 21.6342 18.0003 21.2505 18.0003 20.7771V19.2856C18.0003 18.9447 17.8648 18.6175 17.6237 18.3765C17.3827 18.1354 17.0556 17.9999 16.7146 17.9999C15.6916 17.9999 14.7105 17.5936 13.9871 16.8702C13.2638 16.1468 12.8574 15.1658 12.8574 14.1428C12.8574 13.1198 13.2638 12.1387 13.9871 11.4154Z" fill="#0591B5"/>
<path fill-rule="evenodd" clip-rule="evenodd" d="M0 12C0 5.37258 5.37258 0 12 0C18.6275 0 24 5.37259 24 12C24 18.6275 18.6275 24 12 24C5.37259 24 0 18.6275 0 12ZM12 1.71429C6.31936 1.71429 1.71429 6.31936 1.71429 12C1.71429 17.6807 6.31935 22.2857 12 22.2857C17.6807 22.2857 22.2857 17.6807 22.2857 12C22.2857 6.31935 17.6807 1.71429 12 1.71429Z" fill="#0591B5"/>
</g>
<defs>
<clipPath id="clip0_0_37">
<rect width="24" height="24" fill="white"/>
</clipPath>
</defs>
</svg>
