<svg width="24" height="24" viewBox="0 0 24 24" fill="none" xmlns="http://www.w3.org/2000/svg">
<path d="M12 2.25C12.7976 2.25004 13.5637 2.39839 14.2706 2.66992C13.9278 3.05358 13.6439 3.49063 13.4317 3.9668C12.9781 3.82625 12.4972 3.75003 12 3.75C9.53587 3.75 7.46578 5.60274 7.1934 8.05176L6.94145 10.3184L6.93462 10.3789C6.81119 11.4543 6.4897 12.4963 5.98735 13.4521L5.76079 13.8564L5.72954 13.9082L5.15141 14.8711C4.88076 15.3222 4.7087 15.6128 4.60454 15.834C4.54348 15.9637 4.52584 16.0278 4.52153 16.0498C4.53186 16.1005 4.55804 16.1462 4.59575 16.1816C4.61429 16.1886 4.6771 16.2097 4.82524 16.2246C5.06845 16.2491 5.40673 16.25 5.93266 16.25H18.0674C18.5934 16.25 18.9317 16.2491 19.1749 16.2246C19.3212 16.2098 19.3841 16.1888 19.4034 16.1816C19.4412 16.1462 19.4672 16.1006 19.4776 16.0498C19.4732 16.0276 19.4565 15.9633 19.3956 15.834C19.3435 15.7234 19.2747 15.595 19.1846 15.4385L18.8487 14.8711L18.2706 13.9082L18.2393 13.8564C17.7011 12.9521 17.3318 11.9587 17.1465 10.9258C17.4239 10.9735 17.7091 11 18 11C18.231 11 18.4581 10.9825 18.6807 10.9521C18.8475 11.7033 19.1332 12.4249 19.5284 13.0889L19.5567 13.1367L20.1348 14.0996L20.4854 14.6914C20.5901 14.8737 20.6811 15.0417 20.753 15.1943C20.8773 15.4584 20.9935 15.7744 20.9776 16.1221L20.9629 16.2725C20.9053 16.638 20.733 16.9751 20.4737 17.2354L20.3575 17.3418C20.0414 17.6063 19.656 17.6834 19.3243 17.7168C18.9882 17.7506 18.5605 17.75 18.0674 17.75H5.93266C5.43959 17.75 5.0119 17.7505 4.67583 17.7168C4.38557 17.6876 4.05452 17.6249 3.76469 17.4326L3.64262 17.3418C3.35902 17.1043 3.15915 16.7838 3.06938 16.4277L3.03715 16.2725C2.97303 15.8654 3.10505 15.496 3.24712 15.1943C3.39108 14.8887 3.61149 14.5226 3.86528 14.0996L4.4434 13.1367L4.47172 13.0889L4.65922 12.7539C5.07538 11.962 5.34211 11.0989 5.44438 10.208L5.45024 10.1523L5.70219 7.88672C6.05875 4.67781 8.77139 2.25 12 2.25ZM16.7745 4.4209C17.5987 5.36464 18.1503 6.55867 18.2979 7.88672L18.3067 7.97363C18.2066 7.98908 18.1045 7.99999 18 8L17.7959 7.98926C17.3878 7.94788 17.0169 7.78242 16.7188 7.5332C16.5845 6.92901 16.3386 6.37068 16.0049 5.87793C16.0406 5.28541 16.3336 4.76345 16.7745 4.4209Z" fill="#4C5563"/>
<path d="M9.10222 17.6647C9.27315 18.6215 9.64978 19.467 10.1737 20.0701C10.6976 20.6731 11.3396 21 12 21C12.6604 21 13.3024 20.6731 13.8263 20.0701C14.3502 19.467 14.7269 18.6215 14.8978 17.6647" stroke="#4C5563" stroke-linecap="round"/>
<circle cx="18" cy="6" r="2.25" fill="#D32F2F" stroke="#D32F2F" stroke-width="0.5"/>
</svg>
