<svg width="32" height="32" viewBox="0 0 32 32" fill="none" xmlns="http://www.w3.org/2000/svg">
<path d="M15.9997 3.5C20.0497 3.5 23.4516 6.54518 23.8991 10.5703L24.235 13.5928C24.304 14.2137 24.3359 14.499 24.3884 14.7764C24.5173 15.4574 24.7403 16.1174 25.0505 16.7373C25.1768 16.9898 25.3246 17.2365 25.6462 17.7725L26.611 19.3809C27.0051 20.0376 27.3312 20.579 27.5143 21.0205C27.6988 21.4653 27.7978 21.9474 27.5387 22.4053C27.2795 22.8631 26.8149 23.027 26.3386 23.0977C25.8657 23.1678 25.2334 23.167 24.4675 23.167H7.53191C6.76599 23.167 6.13363 23.1678 5.66082 23.0977C5.1845 23.0269 4.71982 22.8631 4.46062 22.4053C4.20169 21.9475 4.3006 21.4653 4.48504 21.0205C4.66814 20.579 4.9943 20.0376 5.38836 19.3809L6.3532 17.7725C6.67478 17.2365 6.82256 16.9898 6.9489 16.7373C7.25907 16.1174 7.48207 15.4574 7.61101 14.7764C7.66351 14.499 7.69534 14.2138 7.76433 13.5928L8.10027 10.5703C8.5477 6.54527 11.9498 3.50016 15.9997 3.5ZM15.9997 4.5C12.4594 4.50016 9.4846 7.16205 9.09343 10.6807L8.75847 13.7031C8.69109 14.3096 8.65464 14.6385 8.59343 14.9619C8.44727 15.734 8.19414 16.4828 7.84246 17.1855C7.69514 17.4799 7.52458 17.7638 7.21062 18.2871L6.24578 19.8945C5.83424 20.5804 5.5558 21.0467 5.40789 21.4033C5.26157 21.7562 5.30279 21.8637 5.33074 21.9131C5.35869 21.9624 5.42962 22.0523 5.8073 22.1084C6.18918 22.1651 6.73219 22.167 7.53191 22.167H24.4675C25.2671 22.167 25.8102 22.165 26.1921 22.1084C26.5697 22.0523 26.6406 21.9625 26.6686 21.9131C26.6966 21.8637 26.738 21.7566 26.5915 21.4033C26.4435 21.0467 26.1651 20.5804 25.7536 19.8945L24.7887 18.2871C24.4748 17.7639 24.3042 17.4799 24.1569 17.1855C23.8053 16.4828 23.5521 15.734 23.4059 14.9619C23.3447 14.6385 23.3083 14.3096 23.2409 13.7031L22.9059 10.6807C22.5147 7.16197 19.5401 4.5 15.9997 4.5Z" fill="black"/>
<path d="M12.1363 23.5529C12.3642 24.8287 12.8664 25.9561 13.565 26.7601C14.2635 27.5642 15.1195 28 16 28C16.8805 28 17.7365 27.5642 18.435 26.7601C19.1336 25.9561 19.6358 24.8287 19.8637 23.5529" stroke="black" stroke-linecap="round"/>
</svg>
