<svg width="24" height="24" viewBox="0 0 24 24" fill="none" xmlns="http://www.w3.org/2000/svg">
<path d="M12 5C15.866 5 19 8.13401 19 12C19 15.866 15.866 19 12 19C8.13401 19 5 15.866 5 12C5 8.13401 8.13401 5 12 5ZM12 6C11.3106 6 10.6272 6.11893 9.97949 6.35059L9.7041 6.45703C9.06708 6.72089 8.48054 7.09169 7.9707 7.55371L7.75781 7.75781C7.27019 8.24543 6.8704 8.81251 6.57617 9.43457L6.45703 9.7041C6.15552 10.432 6 11.2121 6 12C6 12.2761 6.22386 12.5 6.5 12.5C6.77614 12.5 7 12.2761 7 12C7 11.3435 7.12964 10.6935 7.38086 10.0869L7.48047 9.86133C7.72563 9.34325 8.0587 8.87099 8.46484 8.46484L8.64258 8.29492C9.06742 7.90994 9.55611 7.60073 10.0869 7.38086C10.6935 7.12964 11.3435 7 12 7C12.2761 7 12.5 6.77614 12.5 6.5C12.5 6.25829 12.3286 6.05629 12.1006 6.00977L12 6Z" fill="#B1EDF8"/>
<path d="M20.5 20.5L17 17" stroke="#6681A1" stroke-linecap="round"/>
<circle cx="11" cy="11" r="8.5" stroke="#6681A1"/>
</svg>
