<svg width="24" height="24" viewBox="0 0 24 24" fill="none" xmlns="http://www.w3.org/2000/svg">
<g clip-path="url(#clip0_330_163187)">
<path d="M9.70314 1.95408L8.966 3.85693L6.42886 5.29693L4.406 4.98836C4.06916 4.94264 3.72635 4.99808 3.42111 5.14765C3.11586 5.29722 2.86198 5.53416 2.69171 5.82836L2.006 7.02836C1.83028 7.32725 1.74932 7.67238 1.77382 8.01822C1.7983 8.36406 1.92707 8.69436 2.14314 8.9655L3.42886 10.5598V13.4398L2.17743 15.0341C1.96136 15.3052 1.83258 15.6355 1.8081 15.9814C1.7836 16.3272 1.86457 16.6723 2.04028 16.9712L2.726 18.1712C2.89626 18.4654 3.15015 18.7023 3.45539 18.852C3.76064 19.0014 4.10344 19.057 4.44028 19.0112L6.46314 18.7026L8.966 20.1426L9.70314 22.0455C9.82744 22.3676 10.0462 22.6448 10.3307 22.8406C10.6151 23.0364 10.9521 23.1416 11.2974 23.1426H12.7374C13.0828 23.1416 13.4197 23.0364 13.7042 22.8406C13.9887 22.6448 14.2074 22.3676 14.3317 22.0455L15.0689 20.1426L17.5717 18.7026L19.5946 19.0112C19.9314 19.057 20.2743 19.0014 20.5794 18.852C20.8847 18.7023 21.1386 18.4654 21.3089 18.1712L21.9946 16.9712C22.1703 16.6723 22.2512 16.3272 22.2267 15.9814C22.2023 15.6355 22.0734 15.3052 21.8574 15.0341L20.5717 13.4398V10.5598L21.8231 8.9655C22.0391 8.69436 22.1681 8.36406 22.1924 8.01822C22.2169 7.67238 22.136 7.32725 21.9603 7.02836L21.2746 5.82836C21.1043 5.53416 20.8505 5.29722 20.5451 5.14765C20.24 4.99808 19.8971 4.94264 19.5603 4.98836L17.5374 5.29693L15.0346 3.85693L14.2974 1.95408C14.1731 1.6319 13.9544 1.35478 13.6699 1.15901C13.3854 0.963243 13.0485 0.857954 12.7031 0.856934H11.2974C10.9521 0.857954 10.6151 0.963243 10.3307 1.15901C10.0462 1.35478 9.82744 1.6319 9.70314 1.95408Z" stroke="black" stroke-linecap="round" stroke-linejoin="round"/>
<path d="M9.14911 13.9047C8.77237 13.3408 8.57129 12.678 8.57129 11.9999C8.57129 11.0906 8.93251 10.2185 9.5755 9.5755C10.2185 8.93251 11.0906 8.57129 11.9999 8.57129C12.678 8.57129 13.3408 8.77237 13.9047 9.14911C14.4685 9.52584 14.9079 10.0613 15.1674 10.6878C15.4269 11.3143 15.4948 12.0037 15.3626 12.6687C15.2303 13.3338 14.9037 13.9447 14.4242 14.4242C13.9447 14.9037 13.3338 15.2303 12.6687 15.3626C12.0037 15.4948 11.3143 15.4269 10.6878 15.1674C10.0613 14.9079 9.52584 14.4685 9.14911 13.9047Z" stroke="black" stroke-linecap="round" stroke-linejoin="round"/>
</g>
<defs>
<clipPath id="clip0_330_163187">
<rect width="24" height="24" fill="white"/>
</clipPath>
</defs>
</svg>
