<svg width="14" height="16" viewBox="0 0 14 16" fill="none" xmlns="http://www.w3.org/2000/svg">
<path fill-rule="evenodd" clip-rule="evenodd" d="M6.95391 1.35215C3.86015 1.35215 1.35215 3.86015 1.35215 6.95391C1.35215 8.82879 2.34138 10.5257 3.55248 11.8916C4.75601 13.249 6.10968 14.2009 6.68194 14.5742C6.75235 14.6201 6.84285 14.6483 6.95391 14.6483C7.06497 14.6483 7.15548 14.6201 7.22589 14.5742C7.79815 14.2009 9.15182 13.249 10.3553 11.8916C11.5664 10.5257 12.5557 8.82879 12.5557 6.95391C12.5557 3.86015 10.0477 1.35215 6.95391 1.35215ZM0 6.95391C0 3.11338 3.11338 0 6.95391 0C10.7945 0 13.9078 3.11338 13.9078 6.95391C13.9078 9.30561 12.6758 11.3126 11.3671 12.7887C10.0509 14.2732 8.58628 15.3012 7.96447 15.7068L7.96441 15.7068C7.65225 15.9104 7.29957 16.0004 6.95391 16.0004C6.60825 16.0004 6.25557 15.9104 5.94342 15.7068L5.94336 15.7068C5.32155 15.3012 3.85696 14.2732 2.54074 12.7887C1.23205 11.3126 0 9.30561 0 6.95391Z" fill="#6681A1"/>
<path fill-rule="evenodd" clip-rule="evenodd" d="M6.95404 4.83992C5.97909 4.83992 5.18874 5.63028 5.18874 6.60523C5.18874 7.58018 5.97909 8.37054 6.95404 8.37054C7.929 8.37054 8.71935 7.58018 8.71935 6.60523C8.71935 5.63028 7.929 4.83992 6.95404 4.83992ZM3.83659 6.60523C3.83659 4.88351 5.23232 3.48777 6.95404 3.48777C8.67577 3.48777 10.0715 4.88351 10.0715 6.60523C10.0715 8.32695 8.67577 9.72269 6.95404 9.72269C5.23232 9.72269 3.83659 8.32695 3.83659 6.60523Z" fill="#6681A1"/>
</svg>
