<svg width="24" height="24" viewBox="0 0 24 24" fill="none" xmlns="http://www.w3.org/2000/svg">
<g clip-path="url(#clip0_0_144)">
<path fill-rule="evenodd" clip-rule="evenodd" d="M12.0002 0C12.4736 0 12.8574 0.383756 12.8574 0.857143V10.2857C12.8574 10.7591 12.4736 11.1429 12.0002 11.1429C11.5268 11.1429 11.1431 10.7591 11.1431 10.2857V0.857143C11.1431 0.383756 11.5268 0 12.0002 0Z" fill="#0591B5"/>
<path fill-rule="evenodd" clip-rule="evenodd" d="M5.82052 2.85039C6.11038 3.22465 6.04197 3.76304 5.66771 4.05291C3.97966 5.36033 2.74617 7.15701 2.13809 9.19157L1.31684 8.94611L2.13809 9.19157C1.53003 11.2261 1.5773 13.398 2.27339 15.4046C2.9695 17.4113 4.28014 19.1537 6.02368 20.3876C7.76734 21.6217 9.85664 22.2856 12 22.2856C14.1434 22.2856 16.2327 21.6217 17.9763 20.3876L17.9763 20.3876C19.7199 19.1537 21.0305 17.4113 21.7265 15.4046L21.7266 15.4046C22.4227 13.3979 22.47 11.2261 21.8618 9.19159L21.8618 9.19154C21.2538 7.15699 20.0204 5.36033 18.3323 4.05292C17.958 3.76306 17.8896 3.22468 18.1795 2.85041C18.4693 2.47614 19.0077 2.40772 19.382 2.69758C21.3518 4.22315 22.7933 6.32153 23.5043 8.70063C24.2155 11.0798 24.1602 13.62 23.3461 15.9665L22.5363 15.6855L23.3461 15.9665C22.5323 18.3127 21.0009 20.3473 18.9666 21.7869C16.9326 23.2265 14.4971 23.9998 12 23.9998C9.50286 23.9998 7.06737 23.2265 5.03336 21.7869C2.9992 20.3473 1.46769 18.3127 0.653782 15.9664C-0.160163 13.62 -0.215491 11.0798 0.495597 8.70066C1.20666 6.32155 2.64828 4.22317 4.618 2.69759C4.99226 2.40772 5.53065 2.47613 5.82052 2.85039Z" fill="#0591B5"/>
</g>
<defs>
<clipPath id="clip0_0_144">
<rect width="24" height="24" fill="white"/>
</clipPath>
</defs>
</svg>
