<svg width="20" height="20" viewBox="0 0 20 20" fill="none" xmlns="http://www.w3.org/2000/svg">
<path d="M12.8245 4.34206L13.9995 6.69206C14.1579 7.01706 14.5829 7.32539 14.9412 7.39206L17.0662 7.74206C18.4245 7.96706 18.7412 8.95039 17.7662 9.93373L16.1079 11.5921C15.8329 11.8671 15.6745 12.4087 15.7662 12.8004L16.2412 14.8504C16.6162 16.4671 15.7495 17.1004 14.3245 16.2504L12.3329 15.0671C11.9745 14.8504 11.3745 14.8504 11.0162 15.0671L9.02455 16.2504C7.59955 17.0921 6.73288 16.4671 7.10788 14.8504L7.58288 12.8004C7.65788 12.4004 7.49955 11.8587 7.22455 11.5837L5.56621 9.92539C4.59121 8.95039 4.90788 7.96706 6.26621 7.73373L8.39121 7.38373C8.74954 7.32539 9.17455 7.00873 9.33288 6.68373L10.5079 4.33373C11.1495 3.06706 12.1829 3.06706 12.8245 4.34206Z" fill="#E69000"/>
</svg>
