<svg width="24" height="24" viewBox="0 0 24 24" fill="none" xmlns="http://www.w3.org/2000/svg">
<g clip-path="url(#clip0_0_66)">
<path fill-rule="evenodd" clip-rule="evenodd" d="M6.85693 9.4285C6.85693 6.58818 9.15947 4.28564 11.9998 4.28564C14.8401 4.28564 17.1426 6.58818 17.1426 9.4285C17.1426 12.2688 14.8401 14.5714 11.9998 14.5714C9.15947 14.5714 6.85693 12.2688 6.85693 9.4285ZM11.9998 5.99993C10.1062 5.99993 8.57122 7.53496 8.57122 9.4285C8.57122 11.322 10.1062 12.8571 11.9998 12.8571C13.8933 12.8571 15.4284 11.322 15.4284 9.4285C15.4284 7.53496 13.8933 5.99993 11.9998 5.99993Z" fill="#0591B5"/>
<path fill-rule="evenodd" clip-rule="evenodd" d="M12 17.1454C10.6767 17.1454 9.37565 17.4859 8.2219 18.134L8.22183 18.134C7.06814 18.782 6.10052 19.716 5.41203 20.8462C5.16574 21.2505 4.63836 21.3785 4.23408 21.1323C3.82981 20.886 3.70173 20.3586 3.94802 19.9543C4.78948 18.5731 5.97212 17.4314 7.38229 16.6394M7.38235 16.6394C8.79248 15.8472 10.3826 15.4312 12 15.4312C13.6174 15.4312 15.2076 15.8472 16.6178 16.6394C18.028 17.4315 19.2105 18.5731 20.052 19.9543C20.2983 20.3585 20.1703 20.8859 19.766 21.1322C19.3618 21.3785 18.8344 21.2505 18.5881 20.8462C17.8995 19.716 16.9319 18.782 15.7782 18.1341L15.7781 18.134C14.6244 17.4859 13.3233 17.1454 12 17.1454" fill="#0591B5"/>
<path fill-rule="evenodd" clip-rule="evenodd" d="M0 12C0 5.37258 5.37258 0 12 0C18.6275 0 24 5.37259 24 12C24 18.6275 18.6275 24 12 24C5.37259 24 0 18.6275 0 12ZM12 1.71429C6.31936 1.71429 1.71429 6.31936 1.71429 12C1.71429 17.6807 6.31935 22.2857 12 22.2857C17.6807 22.2857 22.2857 17.6807 22.2857 12C22.2857 6.31935 17.6807 1.71429 12 1.71429Z" fill="#0591B5"/>
</g>
<defs>
<clipPath id="clip0_0_66">
<rect width="24" height="24" fill="white"/>
</clipPath>
</defs>
</svg>
