<svg width="16" height="16" viewBox="0 0 16 16" fill="none" xmlns="http://www.w3.org/2000/svg">
<path d="M1.55582 7.72042C1.55582 7.72042 1.07919 7.02568 1.77435 6.54947C2.46866 6.07326 2.94487 6.768 2.94487 6.768L5.15582 9.99242C5.23161 9.86526 5.3154 9.73979 5.40803 9.616L2.3394 5.14063C2.3394 5.14063 1.86319 4.44631 2.55793 3.9701C3.25224 3.49347 3.72845 4.18821 3.72845 4.18821L6.61519 8.39747C6.72256 8.30947 6.83203 8.22189 6.94571 8.13558L3.59961 3.25558C3.59961 3.25558 3.1234 2.56126 3.81772 2.08505C4.51203 1.60842 4.98824 2.30315 4.98824 2.30315L8.33477 7.18274C8.45772 7.10695 8.5794 7.04168 8.70108 6.97305L5.57393 2.41221C5.57393 2.41221 5.09772 1.71789 5.79245 1.24168C6.48677 0.765049 6.96298 1.45979 6.96298 1.45979L10.2699 6.2821L10.5348 6.66863L10.7727 7.016C8.68929 8.44463 8.49098 11.1335 9.68129 12.8695C9.91961 13.2168 10.2666 12.9789 10.2666 12.9789C8.83793 10.8952 9.27456 8.55368 11.3583 7.12505L10.7428 4.05052C10.7428 4.05052 10.5133 3.24 11.3234 3.01052C12.1335 2.78105 12.363 3.59116 12.363 3.59116L13.0725 5.6981C13.3537 6.53347 13.6531 7.36589 14.0493 8.15284C15.168 10.376 14.4998 13.1394 12.3899 14.5861C10.0889 16.1638 6.94361 15.5777 5.36551 13.2766C5.28214 13.1545 5.21224 13.0354 5.14572 12.9162L5.12719 12.9293L1.55582 7.72042Z" fill="url(#paint0_linear_2426_67)"/>
<path d="M14.7192 3.36842H15.5613C15.5604 2.5917 15.2514 1.84704 14.7022 1.29781C14.153 0.74858 13.4083 0.439631 12.6316 0.43874V1.28084C13.1851 1.28151 13.7156 1.50167 14.107 1.89302C14.4984 2.28437 14.7185 2.81497 14.7192 3.36842Z" fill="url(#paint1_linear_2426_67)"/>
<path d="M13.8948 5.47369H14.7369C14.7369 3.152 12.848 1.26316 10.5264 1.26316V2.10526C12.3836 2.10526 13.8948 3.61642 13.8948 5.47369Z" fill="url(#paint2_linear_2426_67)"/>
<path d="M3.36841 15.5789V14.7368C2.10525 14.7368 1.26314 13.8947 1.26314 12.6316H0.42104C0.42104 14.3158 1.6842 15.5789 3.36841 15.5789Z" fill="url(#paint3_linear_2426_67)"/>
<path d="M5.47369 14.7545V13.9124C3.78948 13.9124 2.08759 12.2105 2.08759 10.5263H1.24548C1.24548 13.0526 2.94738 14.7545 5.47369 14.7545Z" fill="url(#paint4_linear_2426_67)"/>
<defs>
<linearGradient id="paint0_linear_2426_67" x1="7.99106" y1="15.4719" x2="7.99106" y2="1.07462" gradientUnits="userSpaceOnUse">
<stop stop-color="#FFD900"/>
</linearGradient>
<linearGradient id="paint1_linear_2426_67" x1="14.0964" y1="3.36842" x2="14.0964" y2="0.43874" gradientUnits="userSpaceOnUse">
<stop stop-color="#FFD900"/>
</linearGradient>
<linearGradient id="paint2_linear_2426_67" x1="12.6316" y1="5.47369" x2="12.6316" y2="1.26316" gradientUnits="userSpaceOnUse">
<stop stop-color="#FFD900"/>
</linearGradient>
<linearGradient id="paint3_linear_2426_67" x1="1.89472" y1="15.5789" x2="1.89472" y2="12.6316" gradientUnits="userSpaceOnUse">
<stop stop-color="#FFD900"/>
</linearGradient>
<linearGradient id="paint4_linear_2426_67" x1="3.35959" y1="14.7545" x2="3.35959" y2="10.5263" gradientUnits="userSpaceOnUse">
<stop stop-color="#FFD900"/>
</linearGradient>
</defs>
</svg>
